<svg width="88" height="88" viewBox="0 0 88 88" fill="none" xmlns="http://www.w3.org/2000/svg">
<mask id="mask0_3_62" style="mask-type:alpha" maskUnits="userSpaceOnUse" x="0" y="0" width="88" height="88">
<rect width="88" height="88" fill="#D9D9D9"/>
</mask>
<g mask="url(#mask0_3_62)">
<path d="M18.3333 77C16.3167 77 14.5897 76.2826 13.1523 74.8477C11.7174 73.4104 11 71.6834 11 69.6667V18.3334C11 16.3167 11.7174 14.5897 13.1523 13.1524C14.5897 11.7175 16.3167 11 18.3333 11H36.6667V18.3334H18.3333V69.6667H69.6667V50.05L77 57.3834V69.6667C77 71.6834 76.2826 73.4104 74.8477 74.8477C73.4103 76.2826 71.6833 77 69.6667 77H18.3333ZM22 62.3334L33 47.6667L41.25 58.6667L52.25 44L66 62.3334H22ZM79.0167 49.1334L67.65 37.7667C66.3667 38.6223 64.9917 39.2639 63.525 39.6917C62.0583 40.1195 60.5 40.3334 58.85 40.3334C54.3278 40.3334 50.4778 38.7298 47.3 35.5227C44.1222 32.3132 42.5333 28.4167 42.5333 23.8334C42.5333 19.25 44.1381 15.3536 47.3477 12.144C50.5548 8.93693 54.45 7.33337 59.0333 7.33337C63.6167 7.33337 67.5131 8.93693 70.7227 12.144C73.9298 15.3536 75.5333 19.25 75.5333 23.8334C75.5333 25.4834 75.2889 27.0723 74.8 28.6C74.3111 30.1278 73.7 31.5334 72.9667 32.8167L84.15 44L79.0167 49.1334ZM59.0333 33C61.6 33 63.7694 32.1139 65.5417 30.3417C67.3139 28.5695 68.2 26.4 68.2 23.8334C68.2 21.2667 67.3139 19.0973 65.5417 17.325C63.7694 15.5528 61.6 14.6667 59.0333 14.6667C56.4667 14.6667 54.2972 15.5528 52.525 17.325C50.7528 19.0973 49.8667 21.2667 49.8667 23.8334C49.8667 26.4 50.7528 28.5695 52.525 30.3417C54.2972 32.1139 56.4667 33 59.0333 33Z" fill="#1F1F1F"/>
</g>
</svg>
