<svg width="88" height="88" viewBox="0 0 88 88" fill="none" xmlns="http://www.w3.org/2000/svg">
<mask id="mask0_3_68" style="mask-type:alpha" maskUnits="userSpaceOnUse" x="0" y="0" width="88" height="88">
<rect width="88" height="88" fill="#D9D9D9"/>
</mask>
<g mask="url(#mask0_3_68)">
<path d="M55 84.3334H40.3333C39.2944 84.3334 38.4242 83.9814 37.7226 83.2774C37.0186 82.5758 36.6666 81.7056 36.6666 80.6667V58.6667C36.6666 57.6278 37.0186 56.7564 37.7226 56.0524C38.4242 55.3508 39.2944 55 40.3333 55H44V44H14.6666C12.65 44 10.9242 43.2814 9.48931 41.844C8.05198 40.4092 7.33331 38.6834 7.33331 36.6667V22C7.33331 19.9834 8.05198 18.2576 9.48931 16.8227C10.9242 15.3854 12.65 14.6667 14.6666 14.6667H22V11C22 9.96115 22.3508 9.08971 23.0523 8.38571C23.7563 7.68415 24.6278 7.33337 25.6666 7.33337H69.6666C70.7055 7.33337 71.5758 7.68415 72.2773 8.38571C72.9813 9.08971 73.3333 9.96115 73.3333 11V25.6667C73.3333 26.7056 72.9813 27.577 72.2773 28.281C71.5758 28.9826 70.7055 29.3334 69.6666 29.3334H25.6666C24.6278 29.3334 23.7563 28.9826 23.0523 28.281C22.3508 27.577 22 26.7056 22 25.6667V22H14.6666V36.6667H44C46.0166 36.6667 47.7436 37.3842 49.181 38.819C50.6159 40.2564 51.3333 41.9834 51.3333 44V55H55C56.0389 55 56.9103 55.3508 57.6143 56.0524C58.3159 56.7564 58.6666 57.6278 58.6666 58.6667V80.6667C58.6666 81.7056 58.3159 82.5758 57.6143 83.2774C56.9103 83.9814 56.0389 84.3334 55 84.3334ZM44 77H51.3333V62.3334H44V77ZM29.3333 22H66V14.6667H29.3333V22Z" fill="#1F1F1F"/>
</g>
</svg>
