<svg width="88" height="88" viewBox="0 0 88 88" fill="none" xmlns="http://www.w3.org/2000/svg">
<mask id="mask0_3_56" style="mask-type:alpha" maskUnits="userSpaceOnUse" x="0" y="0" width="88" height="88">
<rect width="88" height="88" fill="#D9D9D9"/>
</mask>
<g mask="url(#mask0_3_56)">
<path d="M44 51.3335C46.0166 51.3335 47.7436 50.6148 49.181 49.1775C50.6158 47.7426 51.3333 46.0168 51.3333 44.0002C51.3333 41.9835 50.6158 40.2565 49.181 38.8192C47.7436 37.3843 46.0166 36.6668 44 36.6668C41.9833 36.6668 40.2575 37.3843 38.8226 38.8192C37.3853 40.2565 36.6666 41.9835 36.6666 44.0002C36.6666 46.0168 37.3853 47.7426 38.8226 49.1775C40.2575 50.6148 41.9833 51.3335 44 51.3335ZM44 72.9668C46.5055 72.2946 48.9964 71.0565 51.4726 69.2525C53.9464 67.4509 56.1 65.4502 57.9333 63.2502L51.3333 56.6502C50.2333 57.3224 49.0575 57.8272 47.806 58.1645C46.552 58.4994 45.2833 58.6668 44 58.6668C39.9666 58.6668 36.5138 57.2307 33.6416 54.3585C30.7694 51.4863 29.3333 48.0335 29.3333 44.0002C29.3333 39.9668 30.7694 36.5141 33.6416 33.6418C36.5138 30.7696 39.9666 29.3335 44 29.3335C48.0333 29.3335 51.4861 30.7696 54.3583 33.6418C57.2305 36.5141 58.6666 39.9668 58.6666 44.0002C58.6666 45.3446 58.4992 46.6426 58.1643 47.8942C57.827 49.1482 57.3222 50.3557 56.65 51.5168L62.15 57.0168C63.3722 54.5113 64.3194 51.8835 64.9916 49.1335C65.6638 46.3835 66 43.5724 66 40.7002V23.3752L44 15.1252L22 23.3752V40.7002C22 48.0946 24.0777 54.8168 28.2333 60.8668C32.3888 66.9168 37.6444 70.9502 44 72.9668ZM44 80.6668C35.5055 78.5279 28.4936 73.6537 22.9643 66.0442C17.4325 58.437 14.6666 49.9891 14.6666 40.7002V18.3335L44 7.3335L73.3333 18.3335V40.7002C73.3333 49.9891 70.5686 58.437 65.0393 66.0442C59.5075 73.6537 52.4944 78.5279 44 80.6668Z" fill="#1F1F1F"/>
</g>
</svg>
